<svg width="213" height="200" viewBox="0 0 213 200" fill="none" xmlns="http://www.w3.org/2000/svg">
<rect width="213" height="200" fill="#D9D9D9"/>
<path d="M132.321 67.2727H151.284L171.312 116.136H172.165L192.193 67.2727H211.156V140H196.241V92.6634H195.638L176.817 139.645H166.661L147.839 92.4858H147.236V140H132.321V67.2727Z" fill="black"/>
<path d="M78.2358 140H59.3438L83.8821 67.2727H107.284L131.822 140H112.93L95.8494 85.5966H95.2812L78.2358 140ZM75.7145 111.378H115.203V124.73H75.7145V111.378Z" fill="black"/>
<path d="M45.7741 88.1889C45.4901 85.3243 44.2708 83.099 42.1165 81.5128C39.9621 79.9266 37.0384 79.1335 33.3452 79.1335C30.8357 79.1335 28.7169 79.4886 26.9886 80.1989C25.2604 80.8854 23.9347 81.8442 23.0114 83.0753C22.1117 84.3063 21.6619 85.7031 21.6619 87.2656C21.6146 88.5677 21.8868 89.7041 22.4787 90.6747C23.0942 91.6454 23.9347 92.4858 25 93.196C26.0653 93.8826 27.2964 94.4863 28.6932 95.0071C30.09 95.5043 31.5814 95.9304 33.1676 96.2855L39.7017 97.848C42.8741 98.5582 45.786 99.5052 48.4375 100.689C51.089 101.873 53.3854 103.329 55.3267 105.057C57.268 106.785 58.7713 108.821 59.8366 111.165C60.9257 113.509 61.482 116.196 61.5057 119.226C61.482 123.677 60.3456 127.536 58.0966 130.803C55.8712 134.046 52.6515 136.567 48.4375 138.366C44.2472 140.142 39.1927 141.03 33.2741 141.03C27.4029 141.03 22.2893 140.13 17.9332 138.331C13.6009 136.532 10.2154 133.868 7.77699 130.341C5.36222 126.79 4.09564 122.398 3.97727 117.166H18.8565C19.0223 119.605 19.7206 121.641 20.9517 123.274C22.2064 124.884 23.8755 126.103 25.9588 126.932C28.0658 127.737 30.4451 128.139 33.0966 128.139C35.7008 128.139 37.9616 127.76 39.8793 127.003C41.8205 126.245 43.3239 125.192 44.3892 123.842C45.4545 122.493 45.9872 120.942 45.9872 119.19C45.9872 117.557 45.5019 116.184 44.5312 115.071C43.5843 113.958 42.1875 113.011 40.3409 112.23C38.518 111.449 36.2808 110.739 33.6293 110.099L25.7102 108.111C19.5786 106.619 14.7372 104.287 11.1861 101.115C7.63494 97.9427 5.87121 93.6695 5.89489 88.2955C5.87121 83.892 7.04309 80.045 9.41051 76.7543C11.8016 73.4635 15.0805 70.8949 19.2472 69.0483C23.4138 67.2017 28.1487 66.2784 33.4517 66.2784C38.8494 66.2784 43.5606 67.2017 47.5852 69.0483C51.6335 70.8949 54.7822 73.4635 57.0312 76.7543C59.2803 80.045 60.4403 83.8565 60.5114 88.1889H45.7741Z" fill="black"/>
</svg>
