<svg width="213" height="213" viewBox="0 0 213 213" fill="none" xmlns="http://www.w3.org/2000/svg">
<rect width="213" height="213" fill="#D9D9D9"/>
<path d="M132.321 70.0677H151.284L171.312 118.931H172.165L192.193 70.0677H211.156V142.795H196.241V95.4583H195.638L176.817 142.44H166.661L147.839 95.2808H147.236V142.795H132.321V70.0677Z" fill="black"/>
<path d="M78.2358 142.795H59.3438L83.8821 70.0677H107.284L131.822 142.795H112.93L95.8494 88.3916H95.2812L78.2358 142.795ZM75.7145 114.173H115.203V127.525H75.7145V114.173Z" fill="black"/>
<path d="M45.7741 90.9839C45.4901 88.1193 44.2708 85.894 42.1165 84.3078C39.9621 82.7216 37.0384 81.9285 33.3452 81.9285C30.8357 81.9285 28.7169 82.2836 26.9886 82.9939C25.2604 83.6804 23.9347 84.6392 23.0114 85.8703C22.1117 87.1013 21.6619 88.4981 21.6619 90.0606C21.6146 91.3627 21.8868 92.4991 22.4787 93.4697C23.0942 94.4404 23.9347 95.2808 25 95.991C26.0653 96.6776 27.2964 97.2813 28.6932 97.8021C30.09 98.2993 31.5814 98.7254 33.1676 99.0805L39.7017 100.643C42.8741 101.353 45.786 102.3 48.4375 103.484C51.089 104.668 53.3854 106.124 55.3267 107.852C57.268 109.58 58.7713 111.616 59.8366 113.96C60.9257 116.304 61.482 118.991 61.5057 122.021C61.482 126.472 60.3456 130.331 58.0966 133.598C55.8712 136.841 52.6515 139.362 48.4375 141.161C44.2472 142.937 39.1927 143.825 33.2741 143.825C27.4029 143.825 22.2893 142.925 17.9332 141.126C13.6009 139.327 10.2154 136.663 7.77699 133.136C5.36222 129.585 4.09564 125.193 3.97727 119.961H18.8565C19.0223 122.4 19.7206 124.436 20.9517 126.069C22.2064 127.679 23.8755 128.898 25.9588 129.727C28.0658 130.532 30.4451 130.934 33.0966 130.934C35.7008 130.934 37.9616 130.555 39.8793 129.798C41.8205 129.04 43.3239 127.987 44.3892 126.637C45.4545 125.288 45.9872 123.737 45.9872 121.985C45.9872 120.352 45.5019 118.979 44.5312 117.866C43.5843 116.753 42.1875 115.806 40.3409 115.025C38.518 114.244 36.2808 113.534 33.6293 112.894L25.7102 110.906C19.5786 109.414 14.7372 107.082 11.1861 103.91C7.63494 100.738 5.87121 96.4645 5.89489 91.0904C5.87121 86.687 7.04309 82.84 9.41051 79.5493C11.8016 76.2585 15.0805 73.6899 19.2472 71.8433C23.4138 69.9967 28.1487 69.0734 33.4517 69.0734C38.8494 69.0734 43.5606 69.9967 47.5852 71.8433C51.6335 73.6899 54.7822 76.2585 57.0312 79.5493C59.2803 82.84 60.4403 86.6515 60.5114 90.9839H45.7741Z" fill="black"/>
</svg>
